<svg width="155" height="33" viewBox="0 0 155 33" fill="none" xmlns="http://www.w3.org/2000/svg">
<path d="M10.8858 23.7562H22.7727C23.3645 23.7562 23.8019 23.782 24.0849 23.8334C24.3937 23.8592 24.741 23.9749 25.127 24.1808C25.8216 24.541 26.169 25.5444 26.169 27.1911C26.169 28.9922 25.693 30.0471 24.741 30.3558C24.3036 30.5102 23.6347 30.5874 22.7341 30.5874H7.45095C5.6499 30.5874 4.595 30.0985 4.28625 29.1208C4.13188 28.7091 4.05469 28.053 4.05469 27.1525V5.6943C4.05469 4.3821 4.29912 3.49445 4.78797 3.03132C5.27683 2.54246 6.20308 2.29803 7.56673 2.29803H22.7727C23.3645 2.29803 23.8019 2.32376 24.0849 2.37522C24.3937 2.40095 24.741 2.51674 25.127 2.72257C25.8216 3.08278 26.169 4.08622 26.169 5.73289C26.169 7.53394 25.693 8.58884 24.741 8.89759C24.3036 9.05197 23.6347 9.12916 22.7341 9.12916H10.8858V13.0271H18.5274C19.1192 13.0271 19.5566 13.0529 19.8396 13.1043C20.1483 13.1301 20.4957 13.2458 20.8816 13.4517C21.5763 13.8119 21.9237 14.8153 21.9237 16.462C21.9237 18.263 21.4348 19.3179 20.4571 19.6267C20.0197 19.7811 19.3507 19.8583 18.4502 19.8583H10.8858V23.7562Z" fill="#012060"/>
<path d="M28.7034 5.69503C28.7034 5.10326 28.7162 4.66586 28.742 4.38284C28.7934 4.07409 28.9221 3.72674 29.1279 3.3408C29.4881 2.64611 30.4916 2.29877 32.1382 2.29877C33.9393 2.29877 35.007 2.77476 35.3415 3.72674C35.4702 4.16414 35.5345 4.8331 35.5345 5.73363V27.1918C35.5345 27.8093 35.5088 28.2596 35.4573 28.5426C35.4316 28.8256 35.3158 29.1601 35.11 29.5461C34.7497 30.2408 33.7463 30.5881 32.0996 30.5881C30.2986 30.5881 29.2437 30.0992 28.9349 29.1215C28.7806 28.7099 28.7034 28.0538 28.7034 27.1532V5.69503Z" fill="#01B0F1"/>
<path d="M56.3291 23.1769L57.0238 22.6752C57.8986 22.1606 58.5161 21.9033 58.8763 21.9033C59.6739 21.9033 60.5359 22.6237 61.4621 24.0646C62.0282 24.9651 62.3112 25.6855 62.3112 26.2258C62.3112 26.7662 62.1311 27.2164 61.7709 27.5766C61.4364 27.9368 61.0376 28.2585 60.5745 28.5415C60.1113 28.8245 59.6611 29.0947 59.2237 29.352C58.812 29.6092 57.9501 29.9437 56.6379 30.3554C55.3257 30.7671 54.0521 30.9729 52.8171 30.9729C51.6078 30.9729 50.3728 30.8185 49.1121 30.5098C47.8771 30.1753 46.5906 29.635 45.2527 28.8888C43.9405 28.1169 42.7569 27.1907 41.702 26.1101C40.6471 25.0037 39.7723 23.6015 39.0777 21.9033C38.4087 20.1795 38.0742 18.3141 38.0742 16.3072C38.0742 14.3003 38.4087 12.4864 39.0777 10.8655C39.7466 9.2188 40.5957 7.86801 41.6249 6.81311C42.6798 5.73248 43.8762 4.83196 45.2141 4.11154C47.7356 2.72216 50.2699 2.02747 52.8171 2.02747C54.0264 2.02747 55.2485 2.22044 56.4835 2.60638C57.7442 2.96659 58.6962 3.33966 59.3395 3.7256L60.2657 4.26591C60.7288 4.54893 61.089 4.7805 61.3463 4.96061C62.0153 5.50092 62.3498 6.11842 62.3498 6.81311C62.3498 7.48207 62.0796 8.18963 61.5393 8.93578C60.5359 10.3252 59.6353 11.0198 58.8377 11.0198C58.3746 11.0198 57.7185 10.7368 56.8694 10.1708C55.7888 9.29599 54.348 8.85859 52.5469 8.85859C50.8745 8.85859 49.2279 9.4375 47.6069 10.5953C46.835 11.1614 46.1918 11.959 45.6772 12.9881C45.1626 14.0173 44.9053 15.188 44.9053 16.5002C44.9053 17.7866 45.1626 18.9445 45.6772 19.9736C46.1918 21.0028 46.8479 21.8133 47.6455 22.405C49.215 23.5371 50.8488 24.1032 52.5469 24.1032C53.3445 24.1032 54.0907 24.0003 54.7854 23.7944C55.5058 23.5886 56.0204 23.3828 56.3291 23.1769Z" fill="#01B0F1"/>
<path d="M71.7147 23.757H83.6016C84.1934 23.757 84.6308 23.7827 84.9138 23.8342C85.2225 23.8599 85.5699 23.9757 85.9558 24.1815C86.6505 24.5417 86.9979 25.5452 86.9979 27.1918C86.9979 28.9929 86.5219 30.0478 85.5699 30.3565C85.1325 30.5109 84.4635 30.5881 83.563 30.5881H68.2798C66.4788 30.5881 65.4239 30.0992 65.1151 29.1215C64.9607 28.7099 64.8835 28.0538 64.8835 27.1532V5.69503C64.8835 4.38284 65.128 3.49518 65.6168 3.03205C66.1057 2.5432 67.0319 2.29877 68.3956 2.29877H83.6016C84.1934 2.29877 84.6308 2.3245 84.9138 2.37596C85.2225 2.40169 85.5699 2.51747 85.9558 2.7233C86.6505 3.08351 86.9979 4.08695 86.9979 5.73363C86.9979 7.53468 86.5219 8.58957 85.5699 8.89832C85.1325 9.0527 84.4635 9.12989 83.563 9.12989H71.7147V13.0279H79.3563C79.948 13.0279 80.3854 13.0536 80.6684 13.1051C80.9772 13.1308 81.3245 13.2466 81.7105 13.4524C82.4052 13.8126 82.7525 14.8161 82.7525 16.4627C82.7525 18.2638 82.2637 19.3187 81.286 19.6274C80.8486 19.7818 80.1796 19.859 79.2791 19.859H71.7147V23.757Z" fill="#012060"/>
<line x1="95.4248" y1="6.5767" x2="95.3773" y2="26.4245" stroke="#C7C7C7" stroke-width="0.540609"/>
<path d="M104.991 24V8.27319H110.597C111.816 8.27319 112.827 8.48308 113.63 8.90287C114.439 9.32267 115.043 9.90372 115.443 10.646C115.842 11.3832 116.042 12.2356 116.042 13.2032C116.042 14.1656 115.839 15.0129 115.435 15.745C115.036 16.4719 114.432 17.0376 113.623 17.442C112.819 17.8465 111.808 18.0487 110.59 18.0487H106.343V16.006H110.375C111.142 16.006 111.767 15.896 112.248 15.6758C112.735 15.4557 113.09 15.1357 113.316 14.716C113.541 14.2962 113.654 13.7919 113.654 13.2032C113.654 12.6093 113.538 12.0948 113.308 11.6597C113.083 11.2245 112.727 10.8918 112.241 10.6614C111.759 10.4259 111.127 10.3082 110.344 10.3082H107.364V24H104.991ZM112.755 16.9045L116.641 24H113.938L110.129 16.9045H112.755ZM121.302 8.27319V24H118.929V8.27319H121.302ZM133.335 12.4045C133.253 11.6776 132.915 11.1145 132.321 10.7151C131.728 10.3107 130.98 10.1085 130.079 10.1085C129.434 10.1085 128.876 10.2109 128.405 10.4157C127.934 10.6153 127.568 10.8918 127.307 11.245C127.051 11.5931 126.923 11.9899 126.923 12.4353C126.923 12.809 127.01 13.1315 127.184 13.4028C127.363 13.6742 127.596 13.902 127.883 14.0863C128.175 14.2655 128.487 14.4165 128.82 14.5393C129.153 14.6571 129.472 14.7544 129.78 14.8311L131.315 15.2305C131.817 15.3533 132.332 15.5197 132.859 15.7296C133.386 15.9395 133.875 16.2159 134.326 16.5589C134.776 16.9019 135.14 17.3269 135.416 17.8337C135.698 18.3405 135.838 18.9471 135.838 19.6536C135.838 20.5444 135.608 21.3353 135.147 22.0265C134.692 22.7176 134.029 23.2628 133.158 23.6621C132.293 24.0614 131.246 24.2611 130.018 24.2611C128.84 24.2611 127.821 24.0742 126.961 23.7005C126.101 23.3268 125.428 22.7969 124.942 22.1109C124.455 21.4198 124.187 20.6007 124.135 19.6536H126.516C126.562 20.2219 126.746 20.6954 127.069 21.0743C127.397 21.448 127.814 21.727 128.321 21.9113C128.833 22.0905 129.393 22.1801 130.002 22.1801C130.673 22.1801 131.269 22.0751 131.792 21.8652C132.319 21.6502 132.734 21.3533 133.036 20.9744C133.338 20.5905 133.489 20.1425 133.489 19.6306C133.489 19.1647 133.356 18.7833 133.089 18.4864C132.828 18.1895 132.472 17.9437 132.022 17.7492C131.577 17.5547 131.072 17.3832 130.509 17.2347L128.651 16.7279C127.391 16.3849 126.393 15.8806 125.656 15.2151C124.924 14.5496 124.558 13.669 124.558 12.5735C124.558 11.6674 124.804 10.8764 125.295 10.2006C125.786 9.52488 126.452 9.00014 127.292 8.62643C128.131 8.24759 129.078 8.05817 130.133 8.05817C131.198 8.05817 132.137 8.24503 132.951 8.61875C133.77 8.99246 134.415 9.50696 134.886 10.1622C135.357 10.8124 135.603 11.5598 135.623 12.4045H133.335ZM138.674 24V8.27319H148.534V10.3158H141.047V15.1076H148.019V17.1426H141.047V21.9574H148.626V24H138.674Z" fill="#01B0F1"/>
</svg>
